<svg width="28" height="37" viewBox="0 0 28 37" fill="none" xmlns="http://www.w3.org/2000/svg">
<path d="M24.1248 36.4297H3.80452C1.62016 36.4297 -0.113906 34.595 0.00585033 32.4107L0.518407 24.8277L15.9765 30.3269C16.0771 30.3652 16.1825 30.3796 16.2879 30.3796C16.6711 30.3796 17.0304 30.1401 17.1645 29.7617C17.337 29.2778 17.0831 28.7461 16.5993 28.5737L0.647744 22.8972L1.43813 11.1899C1.54831 9.17316 3.22011 7.59717 5.2368 7.59717H22.6829C24.6996 7.59717 26.3714 9.17795 26.4816 11.1899L27.0085 18.9692L12.1779 13.6904C11.6941 13.5179 11.1623 13.7718 10.9899 14.2556C10.8174 14.7394 11.0713 15.2712 11.5551 15.4436L27.1426 20.9907L27.9139 32.4011C28.0336 34.5854 26.2995 36.4201 24.1152 36.4201L24.1248 36.4297Z" fill="url(#paint0_linear_8_14)"/>
<path d="M14.0844 0.74707C10.7504 0.74707 8.03909 3.45835 8.03909 6.79237H10.827C10.827 4.99602 12.288 3.53979 14.0796 3.53979C15.8712 3.53979 17.3322 5.00081 17.3322 6.79237H20.1201C20.1201 3.45835 17.4088 0.74707 14.0748 0.74707H14.0844Z" fill="url(#paint1_linear_8_14)"/>
<defs>
<linearGradient id="paint0_linear_8_14" x1="13.9694" y1="35.7495" x2="13.9694" y2="8.4642" gradientUnits="userSpaceOnUse">
<stop stop-color="#1E3A5F"/>
<stop offset="1" stop-color="#0057C9"/>
</linearGradient>
<linearGradient id="paint1_linear_8_14" x1="14.0844" y1="6.70135" x2="14.0844" y2="0.732699" gradientUnits="userSpaceOnUse">
<stop stop-color="#FF7A00"/>
<stop offset="1" stop-color="#BA6C25"/>
</linearGradient>
</defs>
</svg>
